<svg id="svg" version="1.1" xmlns="http://www.w3.org/2000/svg" xmlns:xlink="http://www.w3.org/1999/xlink" width="400" height="240" viewBox="0, 0, 400,240"><g id="svgg"><path id="path0" d="M143.737 74.640 C 142.553 75.359,141.216 76.182,140.768 76.468 C 140.319 76.755,139.569 77.114,139.101 77.267 C 138.206 77.560,137.307 77.972,137.167 78.155 C 137.121 78.215,135.771 79.146,134.167 80.225 C 130.735 82.532,129.229 83.594,128.759 84.038 C 128.571 84.215,126.579 85.594,124.333 87.101 C 122.087 88.609,119.650 90.268,118.917 90.787 C 118.183 91.307,116.121 92.724,114.333 93.935 C 112.546 95.146,109.556 97.175,107.689 98.444 C 105.822 99.712,104.173 100.825,104.023 100.917 C 103.873 101.008,103.508 101.287,103.210 101.535 L 102.669 101.987 103.317 102.182 C 105.105 102.717,115.474 96.790,123.171 90.833 C 124.296 89.962,125.708 88.875,126.307 88.417 C 126.907 87.958,127.831 87.246,128.362 86.833 C 130.679 85.031,135.255 81.534,135.996 81.000 C 136.441 80.679,137.355 79.998,138.027 79.487 C 140.143 77.878,143.899 75.092,144.333 74.808 C 144.858 74.466,146.116 73.350,145.987 73.340 C 145.934 73.336,144.922 73.921,143.737 74.640 M153.167 86.068 C 150.183 87.100,138.251 90.974,134.917 91.992 C 133.083 92.553,131.358 93.080,131.083 93.165 C 129.715 93.589,124.450 95.000,124.240 95.000 C 123.878 95.000,116.765 97.400,115.333 98.005 C 114.646 98.295,113.446 98.794,112.667 99.113 C 109.025 100.603,104.500 103.025,104.503 103.482 C 104.508 104.364,104.637 104.405,106.440 104.102 C 114.121 102.810,122.356 100.086,130.417 96.172 C 133.231 94.806,135.802 93.675,139.917 91.994 C 142.363 90.994,145.920 89.504,149.250 88.083 C 150.167 87.692,151.722 87.053,152.706 86.664 C 153.691 86.274,154.581 85.853,154.685 85.728 C 154.919 85.446,155.046 85.417,153.167 86.068 M146.917 100.680 C 146.000 100.752,143.938 100.892,142.333 100.990 C 140.729 101.089,137.617 101.282,135.417 101.419 C 133.217 101.556,129.804 101.743,127.833 101.834 C 119.374 102.224,110.880 103.463,105.475 105.095 C 105.298 105.149,105.179 105.407,105.139 105.824 L 105.077 106.469 107.497 106.592 C 114.486 106.946,122.968 106.194,132.000 104.420 C 133.146 104.195,135.471 103.780,137.167 103.498 C 138.862 103.216,141.945 102.687,144.017 102.322 C 149.185 101.413,150.000 101.322,150.000 101.652 C 150.000 101.794,150.188 101.635,150.417 101.298 C 150.646 100.960,150.833 100.643,150.833 100.592 C 150.833 100.473,149.029 100.513,146.917 100.680 M105.105 107.708 C 104.928 108.368,104.986 108.467,105.708 108.737 C 106.812 109.148,111.437 110.426,112.917 110.729 C 119.596 112.093,122.137 112.351,133.667 112.833 C 138.204 113.022,142.081 113.246,142.281 113.330 C 142.599 113.464,142.699 113.391,143.072 112.753 C 143.603 111.848,143.602 111.834,143.042 111.832 C 142.118 111.831,136.141 110.821,132.167 109.996 C 128.274 109.187,127.469 109.041,123.566 108.435 C 116.605 107.354,105.319 106.910,105.105 107.708 M104.530 110.042 C 104.449 110.340,104.391 110.592,104.400 110.603 C 105.466 111.888,118.336 117.835,122.348 118.895 C 123.144 119.106,124.978 119.601,132.083 121.525 C 133.092 121.799,134.503 122.212,135.219 122.445 C 135.935 122.677,136.544 122.841,136.571 122.809 C 136.599 122.776,136.817 122.437,137.055 122.054 L 137.489 121.358 136.286 120.907 C 134.835 120.363,132.945 119.528,129.500 117.910 C 128.079 117.242,126.246 116.385,125.427 116.005 C 121.087 113.990,112.838 111.264,107.250 109.997 C 104.576 109.391,104.706 109.388,104.530 110.042 M103.258 111.865 L 102.956 112.376 103.853 113.264 C 109.789 119.148,114.473 122.610,121.783 126.519 C 123.133 127.240,125.119 128.377,127.833 129.981 C 128.704 130.496,129.491 130.946,129.583 130.982 C 129.675 131.018,129.961 131.195,130.218 131.375 C 130.739 131.740,130.760 131.727,131.407 130.636 L 131.673 130.188 130.545 129.390 C 128.457 127.913,125.771 125.776,122.484 122.977 C 120.461 121.254,119.809 120.770,116.667 118.662 C 113.702 116.673,111.025 115.094,107.750 113.401 C 103.455 111.181,103.627 111.239,103.258 111.865 M87.167 112.232 C 84.047 114.304,80.043 116.920,78.438 117.936 C 77.442 118.567,75.979 119.503,75.188 120.016 C 73.570 121.064,72.292 121.876,71.125 122.595 C 70.690 122.864,69.940 123.337,69.459 123.648 C 68.977 123.958,67.683 124.719,66.583 125.339 C 65.483 125.959,64.268 126.646,63.883 126.866 C 63.498 127.087,63.035 127.455,62.854 127.686 C 62.673 127.916,62.202 128.324,61.808 128.594 C 61.138 129.051,55.266 133.448,49.058 138.141 C 46.348 140.190,45.329 141.086,46.500 140.392 C 48.778 139.041,54.710 135.385,58.199 133.183 C 61.795 130.912,64.462 129.298,66.583 128.108 C 67.683 127.490,68.696 126.917,68.833 126.833 C 69.249 126.580,71.528 125.305,72.417 124.828 C 77.090 122.318,82.900 118.044,87.724 113.568 L 89.032 112.355 88.724 111.933 C 88.339 111.403,88.446 111.383,87.167 112.232 M101.607 113.338 C 101.171 114.076,101.014 113.750,104.304 118.930 C 105.834 121.337,109.517 126.311,110.157 126.833 C 110.213 126.879,110.669 127.396,111.171 127.982 C 111.673 128.568,113.546 130.410,115.333 132.075 C 117.121 133.739,120.608 137.160,123.083 139.676 C 127.228 143.889,127.633 144.254,128.208 144.301 C 129.034 144.369,129.069 144.444,127.208 142.146 C 126.315 141.042,125.270 139.751,124.887 139.278 C 124.504 138.804,123.450 137.442,122.543 136.250 C 120.941 134.143,120.170 133.097,117.750 129.747 C 113.897 124.413,112.894 123.225,108.586 118.893 C 103.142 113.419,102.065 112.562,101.607 113.338 M88.555 114.086 C 84.076 117.700,80.239 121.341,77.753 124.333 C 76.525 125.813,75.340 127.377,71.558 132.512 C 70.719 133.651,69.515 135.258,68.883 136.083 C 68.250 136.908,66.876 138.708,65.830 140.083 C 64.783 141.458,62.874 143.933,61.587 145.583 C 57.540 150.773,57.118 151.557,60.330 147.917 C 62.480 145.481,68.275 139.540,73.416 134.500 C 81.838 126.245,82.930 125.068,86.022 120.907 C 87.190 119.335,89.854 115.470,90.571 114.306 L 90.893 113.784 90.511 113.476 C 89.957 113.027,89.812 113.072,88.555 114.086 M91.415 114.793 C 88.819 118.034,83.333 127.154,83.333 128.230 C 83.333 128.279,82.782 129.729,82.108 131.451 C 81.434 133.174,80.522 135.521,80.081 136.667 C 78.673 140.322,75.185 149.177,74.303 151.333 C 73.013 154.489,71.667 158.066,71.834 157.899 C 71.915 157.817,72.705 156.362,73.590 154.667 C 74.475 152.971,75.632 150.796,76.161 149.833 C 76.690 148.871,78.079 146.321,79.247 144.167 C 81.430 140.142,81.570 139.891,84.116 135.500 C 86.438 131.495,86.496 131.389,87.680 129.000 C 89.854 124.617,91.716 119.839,92.729 116.049 L 93.139 114.514 92.778 114.410 C 92.579 114.353,92.304 114.276,92.165 114.238 C 92.021 114.199,91.701 114.436,91.415 114.793 M99.378 114.504 C 98.946 114.678,98.954 114.775,99.610 117.417 C 101.346 124.405,104.079 130.828,107.632 136.265 C 108.476 137.557,109.167 138.664,109.167 138.727 C 109.167 138.789,109.344 139.121,109.562 139.466 C 109.946 140.074,112.049 144.063,112.183 144.437 C 112.309 144.790,114.393 144.901,114.282 144.549 C 114.230 144.384,113.615 142.787,112.915 141.000 C 112.216 139.212,111.341 136.850,110.971 135.750 C 108.413 128.133,105.831 122.771,101.404 115.880 C 100.384 114.293,100.205 114.171,99.378 114.504 M93.774 116.042 C 90.985 122.605,89.746 129.219,89.162 140.665 C 88.967 144.468,88.749 147.899,88.676 148.290 C 88.523 149.108,88.616 149.151,89.647 148.739 L 90.300 148.477 90.748 146.114 C 90.995 144.814,91.865 141.105,92.682 137.871 C 94.730 129.765,95.231 126.265,95.450 118.542 L 95.551 115.000 94.884 115.000 C 94.224 115.000,94.212 115.011,93.774 116.042 M96.442 116.526 C 95.910 124.019,96.642 131.643,98.425 137.167 C 99.059 139.131,100.242 143.956,100.417 145.292 L 100.531 146.167 101.141 146.166 C 101.871 146.165,103.204 145.802,102.809 145.712 C 102.445 145.628,102.389 145.214,102.176 141.083 C 101.779 133.364,101.647 131.623,101.257 128.992 C 100.790 125.845,100.327 123.651,99.234 119.417 C 98.809 117.767,98.382 116.098,98.285 115.708 C 98.111 115.001,98.110 115.000,97.330 115.000 L 96.550 115.000 96.442 116.526 " stroke="none" fill="#f49c14" fill-rule="evenodd"></path><path id="path1" d="M156.333 68.333 L 151.250 68.417 150.058 69.250 C 149.403 69.708,147.572 70.983,145.989 72.083 C 139.310 76.726,138.647 77.202,138.737 77.292 C 138.886 77.442,140.032 76.956,140.880 76.383 C 142.092 75.565,144.862 73.907,145.710 73.493 C 146.758 72.981,146.636 73.078,140.000 78.019 C 137.662 79.759,134.554 82.098,133.093 83.216 C 131.632 84.335,129.750 85.775,128.912 86.417 C 128.074 87.058,126.720 88.104,125.903 88.740 C 117.589 95.214,114.033 97.529,107.505 100.717 C 104.111 102.374,104.089 102.382,103.380 102.192 L 102.668 102.002 100.792 103.245 C 99.761 103.930,98.729 104.617,98.500 104.773 C 98.271 104.929,96.958 105.807,95.583 106.724 C 94.208 107.641,92.896 108.517,92.667 108.671 C 92.438 108.826,91.425 109.497,90.417 110.163 C 88.381 111.508,88.343 111.550,88.760 112.011 C 89.544 112.877,75.845 123.598,72.236 124.941 C 72.060 125.007,71.178 125.497,70.276 126.030 C 69.374 126.564,68.599 127.000,68.554 127.000 C 68.509 127.000,68.010 127.273,67.445 127.607 C 66.879 127.940,65.704 128.625,64.833 129.129 C 63.235 130.053,60.229 131.908,56.250 134.424 C 53.094 136.419,46.787 140.267,46.083 140.627 C 45.170 141.093,47.887 138.972,55.500 133.278 C 57.471 131.803,59.189 130.493,59.319 130.366 C 59.448 130.240,60.133 129.731,60.839 129.236 C 62.476 128.089,62.855 127.680,61.922 128.070 C 61.566 128.219,61.195 128.405,61.096 128.485 C 60.765 128.752,56.769 130.783,54.750 131.711 C 52.685 132.660,44.783 134.454,40.250 135.002 C 39.425 135.102,38.600 135.217,38.417 135.259 C 33.780 136.297,19.774 137.308,8.583 137.412 C 1.286 137.480,1.421 137.477,1.518 137.573 C 1.558 137.613,3.727 137.953,6.337 138.329 C 15.440 139.637,16.939 139.863,20.250 140.428 C 31.011 142.265,40.052 144.877,47.167 148.205 C 52.637 150.765,58.463 154.109,61.000 156.146 C 61.229 156.330,61.768 156.729,62.197 157.032 C 64.263 158.493,66.863 160.387,67.046 160.564 C 67.158 160.672,67.601 160.965,68.030 161.214 C 68.459 161.463,68.916 161.773,69.045 161.902 C 69.354 162.211,73.394 164.774,74.250 165.204 C 74.617 165.388,75.029 165.636,75.167 165.754 C 75.423 165.975,77.549 167.059,79.531 167.979 C 88.251 172.028,101.523 172.704,116.167 169.847 C 116.487 169.784,114.688 169.682,112.167 169.620 C 99.740 169.312,91.777 167.678,85.000 164.042 C 75.278 158.827,75.898 153.726,86.750 149.650 C 87.483 149.374,88.196 149.088,88.333 149.015 C 88.700 148.818,88.787 147.934,89.163 140.583 C 89.629 131.463,89.915 129.175,91.276 123.667 C 91.631 122.229,93.351 116.979,93.829 115.875 C 94.196 115.027,94.228 115.000,94.879 115.000 L 95.551 115.000 95.450 118.542 C 95.334 122.636,94.967 127.052,94.503 129.923 C 94.135 132.202,94.118 132.277,92.524 138.500 C 91.571 142.224,90.333 147.793,90.333 148.360 C 90.333 148.427,90.540 148.417,90.792 148.336 C 92.469 147.798,95.928 146.977,97.833 146.664 C 99.071 146.460,100.182 146.266,100.302 146.231 C 100.692 146.120,99.595 140.849,98.420 137.184 C 96.707 131.842,95.925 123.906,96.411 116.783 L 96.532 115.000 97.330 115.000 C 98.023 115.000,98.138 115.049,98.207 115.375 C 98.251 115.581,98.671 117.219,99.141 119.014 C 101.254 127.099,101.669 130.082,102.165 140.750 C 102.399 145.776,102.375 145.667,103.230 145.666 C 103.608 145.665,105.176 145.513,106.715 145.329 C 108.254 145.144,110.414 144.981,111.515 144.966 C 112.617 144.952,113.557 144.876,113.605 144.799 C 113.652 144.722,113.630 144.669,113.554 144.682 C 112.501 144.865,112.267 144.699,111.589 143.290 C 111.226 142.535,110.495 141.151,109.964 140.214 C 109.434 139.278,109.000 138.474,109.000 138.428 C 109.000 138.381,108.293 137.272,107.429 135.963 C 104.120 130.950,101.420 124.561,99.596 117.424 C 98.849 114.502,98.876 114.330,100.083 114.341 C 100.904 114.348,106.536 124.194,108.469 129.000 C 109.624 131.870,110.240 133.523,110.833 135.333 C 111.485 137.327,112.743 140.687,113.786 143.225 L 114.393 144.699 116.238 144.578 C 117.253 144.511,120.221 144.410,122.833 144.353 L 127.583 144.250 123.167 139.750 C 120.737 137.275,117.895 134.462,116.850 133.500 C 110.214 127.386,107.187 123.746,102.811 116.618 C 101.299 114.153,101.215 113.917,101.638 113.285 L 101.949 112.820 103.016 113.606 C 104.339 114.581,111.653 121.883,113.340 123.912 C 114.572 125.394,116.230 127.582,118.000 130.059 C 121.062 134.345,122.927 136.822,125.216 139.647 C 125.931 140.529,127.056 141.937,127.716 142.778 L 128.917 144.305 130.250 144.397 C 134.265 144.673,136.942 144.662,136.333 144.372 C 133.917 143.221,133.428 143.000,133.300 143.000 C 133.001 143.000,130.889 141.492,130.222 140.802 C 128.206 138.716,128.157 135.899,130.082 132.723 L 130.672 131.750 130.211 131.376 C 129.957 131.170,129.693 131.001,129.623 131.001 C 129.553 131.000,128.841 130.600,128.040 130.112 C 126.231 129.010,123.000 127.187,120.583 125.907 C 115.489 123.207,110.988 119.954,106.250 115.546 C 102.653 112.200,102.839 112.469,103.469 111.531 C 103.675 111.225,109.400 114.076,112.838 116.195 C 115.829 118.039,120.825 121.414,121.167 121.822 C 121.952 122.759,131.587 130.348,131.729 130.141 C 131.751 130.110,132.046 129.689,132.385 129.208 C 132.723 128.726,133.000 128.296,133.000 128.251 C 133.000 128.174,134.733 125.522,135.938 123.757 C 136.400 123.080,136.458 122.906,136.258 122.795 C 135.963 122.629,131.709 121.427,126.083 119.917 C 118.459 117.872,113.367 115.773,106.390 111.798 L 104.363 110.643 104.515 110.114 C 104.598 109.824,104.667 109.558,104.667 109.524 C 104.667 109.237,111.022 110.838,114.881 112.096 C 121.502 114.255,123.385 114.997,128.917 117.622 C 132.819 119.473,137.099 121.333,137.460 121.333 C 137.484 121.333,137.777 120.902,138.110 120.375 C 138.643 119.530,139.918 117.531,141.590 114.917 C 142.785 113.047,143.579 113.253,133.583 112.836 C 123.337 112.408,121.050 112.223,116.992 111.496 C 115.942 111.308,114.633 111.078,114.083 110.985 C 112.189 110.663,106.915 109.232,105.458 108.645 C 105.008 108.463,104.895 108.133,105.101 107.597 C 105.359 106.925,116.471 107.394,122.917 108.349 C 126.998 108.954,128.089 109.148,132.167 109.991 C 136.267 110.839,140.475 111.560,142.508 111.763 L 143.599 111.872 144.258 110.822 C 144.620 110.244,144.992 109.640,145.083 109.479 C 145.490 108.768,147.935 105.056,148.163 104.803 C 148.303 104.649,148.564 104.236,148.744 103.886 C 148.924 103.536,149.280 102.936,149.536 102.553 C 150.444 101.190,150.525 101.193,143.750 102.382 C 141.917 102.704,139.404 103.132,138.167 103.335 C 136.929 103.537,134.765 103.920,133.356 104.185 C 121.833 106.359,114.392 107.024,106.790 106.559 L 105.029 106.451 105.121 105.851 C 105.238 105.096,105.047 105.222,106.804 104.740 C 111.748 103.386,119.685 102.214,125.917 101.919 C 128.758 101.785,136.217 101.372,139.583 101.163 C 146.247 100.748,150.277 100.473,150.592 100.411 C 150.987 100.333,151.891 99.021,156.159 92.333 C 156.831 91.279,157.746 89.871,158.191 89.203 C 158.636 88.536,159.000 87.956,159.000 87.913 C 159.000 87.871,159.319 87.365,159.708 86.788 C 160.098 86.211,160.979 84.856,161.667 83.778 C 162.354 82.699,163.388 81.089,163.965 80.200 C 164.541 79.311,165.450 77.908,165.985 77.083 C 166.520 76.258,167.398 74.886,167.937 74.034 C 168.476 73.182,169.322 71.869,169.817 71.117 C 170.311 70.365,170.895 69.431,171.114 69.042 L 171.511 68.333 170.214 68.304 C 167.416 68.241,161.176 68.254,156.333 68.333 M154.672 85.743 C 154.561 85.877,153.708 86.286,152.777 86.653 C 151.845 87.020,149.471 88.003,147.500 88.839 C 143.988 90.328,140.740 91.677,138.083 92.748 C 135.609 93.746,132.425 95.161,130.993 95.900 C 129.500 96.669,125.045 98.695,124.016 99.072 C 123.687 99.193,122.592 99.612,121.583 100.003 C 120.575 100.394,119.300 100.845,118.750 101.006 C 118.200 101.166,116.748 101.604,115.523 101.979 C 114.298 102.354,112.761 102.774,112.107 102.911 C 111.452 103.049,110.317 103.306,109.583 103.481 C 105.335 104.499,104.508 104.499,104.503 103.478 C 104.497 102.443,121.810 95.000,124.222 95.000 C 124.446 95.000,125.918 94.601,131.917 92.912 C 134.254 92.254,138.035 91.040,146.417 88.255 C 155.428 85.260,154.953 85.405,154.672 85.743 M90.463 113.426 C 90.981 113.789,91.008 113.726,89.225 116.368 C 84.416 123.489,82.622 125.548,73.250 134.691 C 69.700 138.154,61.716 146.355,60.049 148.250 C 57.176 151.515,57.604 150.575,60.845 146.500 C 61.538 145.629,62.478 144.429,62.935 143.833 C 63.391 143.237,64.282 142.075,64.914 141.250 C 65.546 140.425,66.443 139.263,66.907 138.667 C 67.777 137.549,71.865 132.078,75.081 127.727 C 78.799 122.697,82.867 118.567,88.382 114.221 C 89.840 113.073,89.917 113.043,90.463 113.426 M92.777 114.410 L 93.137 114.513 92.666 116.298 C 91.144 122.064,86.438 132.406,83.311 136.859 C 83.140 137.102,83.000 137.339,83.000 137.384 C 83.000 137.430,82.562 138.243,82.026 139.192 C 80.792 141.376,79.517 143.681,78.077 146.333 C 77.454 147.479,76.592 149.054,76.162 149.833 C 75.731 150.612,74.612 152.731,73.676 154.540 C 72.739 156.350,71.912 157.868,71.838 157.914 C 71.692 158.004,73.258 153.779,74.218 151.491 C 74.544 150.717,75.459 148.433,76.253 146.417 C 77.046 144.400,77.947 142.112,78.253 141.333 C 78.560 140.554,79.347 138.529,80.001 136.833 C 80.656 135.137,81.636 132.616,82.179 131.229 C 82.722 129.843,83.167 128.657,83.167 128.595 C 83.167 127.062,91.325 114.005,92.141 114.231 C 92.293 114.273,92.579 114.353,92.777 114.410 M282.222 126.793 L 281.526 127.917 286.211 127.961 L 290.895 128.005 291.421 127.496 C 291.710 127.216,292.113 126.690,292.317 126.327 L 292.688 125.667 287.802 125.668 L 282.917 125.670 282.222 126.793 M302.706 126.000 C 301.087 126.427,299.602 127.285,298.537 128.409 L 297.661 129.333 296.419 129.333 L 295.178 129.333 294.429 130.625 L 293.680 131.917 295.008 131.965 L 296.337 132.014 295.668 132.998 C 295.301 133.539,295.000 134.017,295.000 134.060 C 295.000 134.102,294.531 134.851,293.958 135.724 C 292.728 137.598,291.744 139.143,291.167 140.104 C 290.938 140.486,290.128 141.784,289.368 142.988 C 288.607 144.192,287.947 145.278,287.900 145.400 C 287.748 145.796,297.314 146.034,298.028 145.652 C 298.186 145.567,298.684 144.880,299.134 144.124 C 300.499 141.836,302.154 139.153,302.503 138.662 C 302.685 138.407,302.833 138.150,302.833 138.090 C 302.833 138.031,303.233 137.368,303.721 136.616 C 304.209 135.865,304.923 134.725,305.307 134.083 C 305.692 133.442,306.110 132.782,306.236 132.616 C 306.461 132.322,318.910 132.092,323.373 132.300 L 324.662 132.359 324.410 132.846 C 324.187 133.277,324.067 133.335,323.371 133.346 C 322.938 133.353,320.033 133.393,316.917 133.436 C 309.604 133.536,309.401 133.605,307.806 136.522 C 306.415 139.066,307.365 139.538,314.117 139.661 C 319.529 139.760,319.490 139.751,319.168 140.776 C 318.604 142.575,317.545 143.501,316.058 143.497 C 314.665 143.494,314.619 143.427,315.173 142.208 L 315.646 141.167 314.031 141.143 C 307.059 141.042,305.000 141.206,305.000 141.866 C 305.000 141.947,304.737 142.403,304.417 142.879 C 303.331 144.491,303.749 145.428,305.652 145.653 C 307.883 145.916,325.881 145.766,326.512 145.479 C 327.607 144.981,328.299 144.181,329.577 141.933 C 331.911 137.827,331.304 137.355,323.472 137.186 C 318.527 137.080,318.404 137.064,318.568 136.549 C 318.855 135.643,319.243 135.590,326.167 135.500 C 333.556 135.404,333.014 135.526,334.224 133.689 C 335.249 132.132,335.242 132.136,337.061 132.136 L 338.635 132.136 339.392 130.860 L 340.150 129.583 338.575 129.536 C 336.963 129.487,336.763 129.384,337.227 128.846 C 337.352 128.702,337.651 128.240,337.893 127.820 L 338.332 127.057 337.958 126.714 C 336.833 125.686,338.027 125.753,320.167 125.715 C 304.620 125.682,303.864 125.694,302.706 126.000 M325.731 127.996 C 326.955 128.196,326.949 128.190,326.498 128.921 L 326.124 129.526 318.103 129.471 C 313.692 129.441,309.633 129.379,309.083 129.333 L 308.083 129.250 308.784 128.775 C 310.143 127.853,310.183 127.848,317.750 127.842 C 321.600 127.838,325.191 127.908,325.731 127.996 M193.236 129.487 C 191.743 129.631,190.237 130.218,189.438 130.968 C 188.949 131.426,187.333 133.784,187.333 134.039 C 187.333 134.117,189.699 134.158,192.590 134.132 L 197.847 134.083 198.679 133.134 C 199.577 132.110,200.318 131.835,201.553 132.067 C 202.712 132.284,202.770 132.469,202.057 133.667 C 200.732 135.890,200.126 136.167,196.584 136.167 L 194.517 136.167 194.111 136.708 C 193.716 137.237,193.167 138.225,193.167 138.408 C 193.167 138.459,194.055 138.500,195.142 138.500 C 198.652 138.500,198.893 138.835,197.291 141.484 C 196.463 142.851,196.074 143.073,194.502 143.079 C 192.698 143.085,192.525 142.817,193.245 141.125 C 193.362 140.851,193.059 140.833,188.193 140.833 L 183.017 140.833 182.610 141.375 C 180.963 143.568,180.943 144.957,182.554 145.254 C 183.667 145.458,204.218 145.247,204.887 145.024 C 206.560 144.465,209.083 140.815,209.083 138.954 L 209.083 137.824 209.913 137.287 C 211.159 136.480,211.582 135.938,212.671 133.757 C 214.015 131.066,213.888 130.201,212.070 129.676 C 211.284 129.449,195.295 129.289,193.236 129.487 M265.923 129.906 C 265.350 130.675,264.638 132.027,264.748 132.137 C 264.802 132.190,267.811 132.250,271.436 132.270 C 278.644 132.308,278.297 132.272,277.945 132.943 L 277.697 133.416 271.224 133.436 C 263.663 133.460,263.770 133.442,262.793 134.833 C 259.599 139.381,259.727 139.524,267.083 139.620 C 273.386 139.702,273.581 139.791,272.184 141.952 C 271.253 143.393,271.048 143.500,269.213 143.500 C 267.456 143.500,267.485 143.534,268.076 142.167 C 268.293 141.662,268.452 141.231,268.428 141.207 C 268.378 141.156,262.413 141.110,260.310 141.143 L 258.870 141.167 258.036 142.395 C 256.733 144.315,256.607 144.650,256.909 145.373 C 257.132 145.907,257.133 146.055,256.914 146.675 C 256.405 148.117,256.199 148.036,260.216 147.973 C 264.240 147.909,264.350 147.878,265.140 146.575 L 265.583 145.844 270.333 145.822 C 279.706 145.778,279.933 145.760,281.037 144.974 C 281.452 144.678,283.000 142.523,283.000 142.240 C 283.000 142.191,283.276 141.723,283.613 141.200 C 284.083 140.473,284.244 140.032,284.298 139.324 L 284.369 138.399 283.143 137.824 L 281.917 137.250 277.055 137.167 C 271.850 137.077,271.732 137.058,272.347 136.401 C 273.111 135.584,273.077 135.588,279.887 135.500 L 286.358 135.417 286.971 134.728 C 287.308 134.348,287.868 133.617,288.215 133.103 L 288.847 132.167 289.745 132.167 C 290.703 132.167,291.048 131.847,291.929 130.143 C 292.292 129.442,293.350 129.499,279.177 129.445 L 266.303 129.395 265.923 129.906 M152.393 130.713 L 151.537 131.917 152.727 132.039 C 153.381 132.107,154.003 132.182,154.108 132.206 C 154.217 132.231,153.718 133.300,152.960 134.667 C 148.762 142.242,148.975 141.813,148.956 142.726 C 148.909 144.955,149.080 145.000,157.618 145.002 C 166.641 145.004,166.259 144.918,165.597 146.794 L 165.361 147.463 170.747 147.453 L 176.132 147.443 176.423 146.847 C 178.261 143.078,178.446 143.171,169.019 143.150 C 164.929 143.141,161.396 143.080,161.167 143.016 C 160.430 142.807,160.571 141.400,161.484 139.833 C 161.885 139.146,162.874 137.421,163.683 136.000 C 164.492 134.579,165.342 133.098,165.572 132.708 L 165.992 132.000 168.339 132.000 C 169.630 132.000,170.657 132.056,170.622 132.125 C 170.587 132.194,169.888 133.357,169.070 134.710 C 168.253 136.063,167.381 137.525,167.134 137.960 C 166.537 139.010,166.032 139.418,164.999 139.683 C 164.207 139.886,163.333 140.781,163.333 141.390 C 163.333 141.675,174.901 141.507,175.732 141.209 C 176.686 140.867,177.985 139.536,178.829 138.035 C 179.123 137.512,180.051 135.958,180.890 134.583 L 182.417 132.083 183.877 132.035 L 185.337 131.987 185.741 131.347 C 185.963 130.995,186.259 130.436,186.397 130.104 L 186.650 129.500 169.950 129.504 L 153.250 129.509 152.393 130.713 M217.795 129.792 C 217.654 129.952,217.350 130.458,217.119 130.917 L 216.699 131.750 217.685 131.917 L 218.672 132.083 217.410 134.125 L 216.148 136.167 214.276 136.167 L 212.404 136.167 211.877 137.042 C 210.952 138.577,210.905 138.500,212.750 138.500 L 214.369 138.500 214.258 138.958 C 214.148 139.409,213.621 140.362,211.930 143.167 C 211.460 143.946,210.942 144.827,210.778 145.125 L 210.481 145.667 212.366 145.693 C 213.402 145.707,215.782 145.707,217.655 145.692 L 221.061 145.665 221.522 145.124 C 221.776 144.827,222.224 144.133,222.519 143.583 C 222.814 143.033,223.493 141.860,224.028 140.975 C 224.562 140.091,225.000 139.319,225.000 139.260 C 225.000 139.201,225.140 138.950,225.311 138.702 C 226.093 137.568,227.000 136.162,227.000 136.084 C 227.000 136.036,227.532 135.103,228.182 134.009 L 229.364 132.020 230.224 131.926 C 230.696 131.874,231.383 131.814,231.750 131.791 C 232.407 131.751,233.645 130.402,233.662 129.708 C 233.671 129.332,218.128 129.413,217.795 129.792 M239.453 130.659 L 238.823 131.816 239.828 131.929 C 241.045 132.067,241.046 131.932,239.826 133.475 C 237.672 136.202,237.930 136.068,234.714 136.143 L 232.163 136.202 231.582 137.242 C 230.852 138.547,230.843 138.500,231.820 138.500 C 233.394 138.500,233.391 138.612,231.762 141.130 C 230.596 142.933,230.562 144.477,231.675 145.041 C 232.194 145.304,232.896 145.333,238.835 145.333 L 245.420 145.333 245.664 144.958 C 245.798 144.752,246.033 144.311,246.187 143.977 L 246.467 143.372 245.858 143.271 C 245.524 143.216,244.486 143.170,243.552 143.169 C 241.282 143.166,241.243 142.974,243.000 140.489 C 244.191 138.803,244.491 138.500,244.968 138.500 C 246.419 138.500,247.793 137.441,249.358 135.117 C 251.584 131.812,251.403 131.964,253.244 131.840 L 254.571 131.750 255.280 130.750 C 255.670 130.200,255.991 129.694,255.994 129.625 C 255.997 129.556,252.419 129.501,248.042 129.501 L 240.083 129.502 239.453 130.659 M346.937 130.602 C 346.098 132.062,346.117 132.075,349.056 132.019 C 352.458 131.954,353.141 132.263,352.231 133.457 C 351.298 134.679,351.378 134.665,345.333 134.666 C 338.896 134.667,339.183 134.596,337.908 136.524 C 336.296 138.961,336.349 140.383,338.083 141.250 L 339.083 141.750 349.674 141.833 C 362.689 141.936,361.845 141.714,360.112 144.575 C 359.782 145.121,359.539 145.594,359.572 145.627 C 359.605 145.660,361.839 145.731,364.536 145.785 L 369.440 145.882 369.965 145.399 C 370.253 145.134,370.743 144.467,371.054 143.917 C 371.364 143.367,372.202 141.979,372.917 140.833 C 373.631 139.688,374.460 138.324,374.759 137.804 C 375.057 137.283,375.637 136.338,376.047 135.704 C 376.458 135.070,376.917 134.290,377.069 133.971 C 377.220 133.652,377.645 133.096,378.013 132.737 L 378.682 132.083 380.949 132.028 L 383.216 131.973 383.111 132.736 C 383.042 133.241,382.710 133.975,382.128 134.909 C 381.343 136.170,380.840 137.028,379.083 140.101 C 378.584 140.975,377.386 143.043,376.387 144.758 C 376.096 145.258,375.871 145.669,375.887 145.673 C 376.386 145.771,384.133 145.844,385.043 145.759 L 386.336 145.638 386.787 144.861 C 387.035 144.433,387.634 143.465,388.119 142.710 C 388.604 141.954,389.000 141.299,389.000 141.253 C 389.000 141.207,389.450 140.468,390.000 139.610 C 390.550 138.752,391.000 138.008,391.000 137.957 C 391.000 137.905,391.481 137.087,392.070 136.140 C 392.658 135.192,393.408 133.982,393.737 133.450 C 394.405 132.368,395.027 132.001,396.203 131.998 C 397.340 131.994,397.627 131.847,398.106 131.024 C 398.353 130.598,398.664 130.081,398.797 129.875 L 399.038 129.500 373.305 129.500 L 347.571 129.500 346.937 130.602 M366.996 132.375 C 366.993 132.738,366.768 133.184,365.105 136.136 C 363.092 139.708,363.892 139.404,356.333 139.468 C 352.988 139.496,350.002 139.473,349.699 139.417 C 348.531 139.201,348.110 138.042,348.909 137.242 L 349.318 136.833 354.367 136.832 C 360.149 136.831,360.441 136.786,361.457 135.731 C 362.139 135.023,362.309 134.784,363.492 132.875 L 364.035 132.000 365.517 132.000 C 366.945 132.000,367.000 132.014,366.996 132.375 M147.917 156.309 C 147.642 156.479,146.824 157.247,146.099 158.017 C 145.375 158.787,142.559 161.704,139.842 164.500 C 134.437 170.061,133.333 171.230,133.333 171.392 C 133.333 171.567,144.767 171.517,145.231 171.341 C 145.461 171.253,146.044 170.795,146.526 170.323 C 147.008 169.852,147.579 169.398,147.795 169.316 C 148.155 169.179,153.833 169.093,153.833 169.224 C 153.833 169.255,153.683 169.717,153.500 170.250 C 153.317 170.783,153.167 171.282,153.167 171.359 C 153.167 171.622,165.765 171.533,165.984 171.269 C 166.090 171.142,166.919 168.798,167.826 166.060 C 168.734 163.323,169.784 160.226,170.161 159.177 C 170.537 158.129,170.910 156.985,170.988 156.636 L 171.131 156.000 159.774 156.001 C 149.019 156.001,148.390 156.018,147.917 156.309 M209.333 156.127 L 197.417 156.171 197.017 156.877 C 196.798 157.266,196.254 158.129,195.809 158.795 C 195.364 159.461,195.000 160.040,195.000 160.080 C 195.000 160.121,194.606 160.738,194.125 161.452 C 193.644 162.166,192.762 163.526,192.167 164.475 C 191.571 165.424,190.830 166.580,190.520 167.044 C 190.210 167.509,189.481 168.701,188.900 169.694 L 187.845 171.500 194.813 171.500 C 202.714 171.500,201.877 171.660,202.862 169.959 C 203.167 169.432,203.817 168.358,204.305 167.572 L 205.194 166.144 205.889 167.056 C 206.271 167.558,207.013 168.557,207.537 169.276 C 208.062 169.995,208.684 170.790,208.919 171.042 L 209.347 171.500 216.265 171.500 C 222.639 171.500,223.171 171.478,223.030 171.226 C 222.945 171.075,222.037 170.109,221.011 169.079 L 219.145 167.208 220.114 167.089 C 221.935 166.865,222.994 166.019,224.498 163.583 C 224.894 162.942,225.575 161.850,226.011 161.158 C 227.298 159.113,227.459 157.833,226.540 156.956 C 225.542 156.005,226.744 156.063,209.333 156.127 M244.359 156.474 C 244.116 156.735,243.628 157.429,243.275 158.016 C 242.922 158.603,242.045 159.983,241.326 161.083 C 239.592 163.734,237.292 167.284,237.083 167.631 C 236.992 167.784,236.533 168.511,236.065 169.246 C 235.184 170.628,234.833 171.243,234.833 171.406 C 234.833 171.458,238.021 171.500,241.917 171.500 C 247.917 171.500,249.000 171.464,249.000 171.264 C 249.000 171.134,249.063 171.003,249.140 170.972 C 249.278 170.918,251.000 168.381,251.000 168.233 C 251.000 168.191,251.431 167.488,251.958 166.670 C 253.342 164.525,254.616 162.510,255.913 160.417 C 257.014 158.641,257.791 157.408,258.407 156.458 L 258.705 156.000 251.753 156.000 L 244.800 156.000 244.359 156.474 M262.941 156.542 C 262.716 156.840,262.011 157.946,261.374 159.000 C 259.167 162.656,257.765 164.917,257.655 165.000 C 257.594 165.046,257.344 165.458,257.101 165.917 C 256.857 166.375,256.262 167.387,255.778 168.167 C 255.294 168.946,254.653 170.015,254.354 170.542 L 253.809 171.500 259.646 171.500 L 265.483 171.500 266.200 170.458 C 266.594 169.885,266.992 169.294,267.083 169.145 C 267.175 168.996,267.622 168.321,268.076 167.645 C 268.530 166.969,269.026 166.192,269.179 165.917 C 269.331 165.642,269.540 165.417,269.642 165.417 C 269.793 165.417,273.000 170.069,273.000 170.289 C 273.000 170.326,273.197 170.614,273.438 170.930 L 273.876 171.504 279.896 171.460 L 285.917 171.417 286.417 170.631 C 286.692 170.200,287.212 169.375,287.573 168.798 C 287.934 168.222,288.842 166.813,289.591 165.667 C 290.340 164.521,291.394 162.885,291.935 162.033 C 292.475 161.180,293.385 159.772,293.958 158.905 C 294.531 158.038,295.000 157.285,295.000 157.232 C 295.000 157.179,295.150 156.945,295.333 156.712 C 295.517 156.479,295.667 156.223,295.667 156.144 C 295.667 155.970,283.827 155.954,283.567 156.128 C 283.466 156.195,283.173 156.587,282.917 157.000 C 282.660 157.412,282.124 158.252,281.725 158.866 C 281.326 159.480,281.000 160.032,281.000 160.094 C 281.000 160.155,280.727 160.577,280.393 161.032 L 279.786 161.858 278.841 160.386 C 278.321 159.576,277.581 158.376,277.197 157.718 C 276.091 155.824,276.862 156.000,269.663 156.000 L 263.350 156.000 262.941 156.542 M300.238 157.042 C 299.864 157.615,298.997 158.946,298.310 160.000 C 297.623 161.054,296.607 162.629,296.052 163.500 C 295.497 164.371,294.635 165.721,294.136 166.500 C 293.637 167.279,293.083 168.153,292.906 168.442 C 292.729 168.731,292.265 169.485,291.875 170.118 C 291.485 170.751,291.167 171.321,291.167 171.385 C 291.167 171.644,320.706 171.515,321.720 171.251 C 324.462 170.537,325.417 169.494,328.879 163.444 C 329.133 163.000,329.714 162.055,330.170 161.343 C 330.627 160.632,331.000 159.997,331.000 159.933 C 331.000 159.868,331.188 159.540,331.417 159.202 C 331.955 158.410,331.976 157.479,331.464 157.002 C 330.483 156.088,330.610 156.095,315.167 156.046 L 300.917 156.000 300.238 157.042 M338.226 156.542 C 337.947 156.840,337.546 157.383,337.334 157.750 C 336.884 158.528,336.349 159.373,334.639 162.000 C 333.954 163.054,332.766 164.892,332.001 166.083 C 331.236 167.275,330.296 168.737,329.912 169.333 C 329.528 169.929,329.089 170.660,328.936 170.958 L 328.658 171.500 335.723 171.500 L 342.788 171.500 344.008 169.625 C 347.186 164.741,348.833 162.163,348.833 162.072 C 348.833 162.026,349.200 161.447,349.649 160.786 C 350.721 159.205,352.500 156.301,352.500 156.133 C 352.500 156.060,349.402 156.000,345.616 156.000 L 338.732 156.000 338.226 156.542 M361.333 156.116 C 361.014 156.230,346.571 170.722,346.333 171.167 C 346.157 171.497,346.211 171.500,352.208 171.500 L 358.261 171.500 359.172 170.565 C 360.480 169.223,360.673 169.167,363.995 169.167 C 367.194 169.167,367.034 169.076,366.431 170.542 L 366.037 171.500 372.502 171.500 L 378.967 171.500 379.130 171.042 C 380.818 166.268,384.000 156.557,384.000 156.176 C 384.000 155.993,361.841 155.934,361.333 156.116 M177.886 156.958 C 177.610 157.394,176.759 158.725,175.997 159.917 C 173.337 164.072,173.076 164.482,171.937 166.277 C 171.307 167.270,170.548 168.458,170.250 168.917 C 169.562 169.974,168.833 171.246,168.833 171.390 C 168.833 171.450,172.002 171.499,175.875 171.497 L 182.917 171.493 183.833 170.063 C 184.338 169.276,184.825 168.515,184.917 168.371 C 185.008 168.227,185.713 167.128,186.483 165.929 C 188.242 163.189,188.763 162.364,191.259 158.375 L 192.641 156.167 185.515 156.167 L 178.389 156.167 177.886 156.958 M157.923 159.625 C 157.861 159.877,157.635 160.496,157.420 161.000 C 157.206 161.504,156.743 162.619,156.390 163.478 C 155.653 165.274,155.569 165.334,153.781 165.331 C 151.587 165.327,151.572 165.412,154.206 162.859 C 155.498 161.607,156.854 160.265,157.219 159.875 C 158.002 159.042,158.073 159.016,157.923 159.625 M371.072 159.542 C 371.007 159.748,370.750 160.367,370.500 160.917 C 369.536 163.037,369.000 164.313,369.000 164.486 C 369.000 165.054,368.338 165.333,367.042 165.314 C 364.530 165.275,364.472 165.470,367.980 162.125 C 371.356 158.905,371.241 159.001,371.072 159.542 M211.522 160.860 C 212.249 161.077,212.359 161.479,211.923 162.322 C 211.303 163.520,209.715 164.135,207.813 163.914 C 206.655 163.780,206.659 163.850,207.700 161.934 L 208.389 160.667 209.633 160.667 C 210.318 160.667,211.168 160.754,211.522 160.860 M314.997 160.998 C 315.991 161.530,313.503 166.565,311.735 167.601 C 311.026 168.017,308.333 168.434,308.333 168.128 C 308.333 167.568,312.029 160.977,312.441 160.801 C 312.861 160.622,314.535 160.751,314.997 160.998 " stroke="none" fill="#c4042c" fill-rule="evenodd"></path><path id="path2" d="" stroke="none" fill="#dca020" fill-rule="evenodd"></path><path id="path3" d="M76.909 131.042 L 76.250 131.750 76.958 131.091 C 77.617 130.478,77.743 130.333,77.617 130.333 C 77.590 130.333,77.271 130.652,76.909 131.042 M69.740 138.042 L 69.250 138.583 69.792 138.094 C 70.297 137.638,70.410 137.500,70.281 137.500 C 70.252 137.500,70.009 137.744,69.740 138.042 M64.410 143.542 L 63.583 144.417 64.458 143.590 C 64.940 143.135,65.333 142.741,65.333 142.715 C 65.333 142.590,65.179 142.729,64.410 143.542 " stroke="none" fill="#dc2c20" fill-rule="evenodd"></path><path id="path4" d="" stroke="none" fill="#e00420" fill-rule="evenodd"></path></g></svg>